PathFileType	4	(X/Y/Z)	 s09c0102.trc
DataRate	CameraRate	NumFrames	NumMarkers	Units	OrigDataRate	OrigDataStartFrame	OrigNumFrames
200	200	5	50	mm	200	751	2000
Frame#	Time	racr			lacr			c7			jug			rlel			rdr			llel			ldr			s2			lic			ric			lasi			rasi			rpsi			lpsi			rgt			lgt			rth1			rth2			rth3			rth4			rlfc			rmfc			rsh1			rsh2			rsh3			rsh4			rlmal			rmmal			rcal			rtoe			rmt5			lth1			lth2			lth4			lth3			llfc			lmfc			llmal			lmmal			lcal			lmt5			lsh1			lsh2			lsh3			lsh4			ltoe			SBIKE			LBIKE			RBIKE			
		X1	Y1	Z1	X2	Y2	Z2	X3	Y3	Z3	X4	Y4	Z4	X5	Y5	Z5	X6	Y6	Z6	X7	Y7	Z7	X8	Y8	Z8	X9	Y9	Z9	X10	Y10	Z10	X11	Y11	Z11	X12	Y12	Z12	X13	Y13	Z13	X14	Y14	Z14	X15	Y15	Z15	X16	Y16	Z16	X17	Y17	Z17	X18	Y18	Z18	X19	Y19	Z19	X20	Y20	Z20	X21	Y21	Z21	X22	Y22	Z22	X23	Y23	Z23	X24	Y24	Z24	X25	Y25	Z25	X26	Y26	Z26	X27	Y27	Z27	X28	Y28	Z28	X29	Y29	Z29	X30	Y30	Z30	X31	Y31	Z31	X32	Y32	Z32	X33	Y33	Z33	X34	Y34	Z34	X35	Y35	Z35	X36	Y36	Z36	X37	Y37	Z37	X38	Y38	Z38	X39	Y39	Z39	X40	Y40	Z40	X41	Y41	Z41	X42	Y42	Z42	X43	Y43	Z43	X44	Y44	Z44	X45	Y45	Z45	X46	Y46	Z46	X47	Y47	Z47	X48	Y48	Z48	X49	Y49	Z49	X50	Y50	Z50	
751	3.7550	505.900979	1256.396636	-82.702668	576.331339	1194.445564	-387.213956	524.882269	1271.521850	-232.180048	483.226346	1141.580686	-227.008331	496.158170	1023.972869	21.379586	696.946460	879.308443	-38.719305	491.950671	1001.993857	-570.296773	683.751961	886.074087	-460.599549	26.417140	1134.858435	-292.672469	169.752120	1109.299162	-431.112996	154.119095	1149.322811	-130.905732	208.161372	1053.871081	-397.062785	196.318225	1092.528277	-143.442541	51.883033	1173.420379	-235.076161	60.761121	1165.940863	-343.176330	139.295419	1020.251099	-80.842210	130.335246	975.988787	-450.694397	249.318716	928.266837	-86.503712	326.906094	887.784784	-94.348641	370.216851	810.503477	-95.614578	346.602782	907.177644	-119.299622	411.073298	712.816585	-120.132372	384.104309	691.516068	-213.739833	327.859424	655.614097	-83.818789	276.356723	583.168983	-94.320218	196.083456	546.979717	-89.209258	292.492640	565.990714	-126.299525	116.960596	483.819617	-84.662481	124.467979	487.996105	-161.565183	35.115461	502.723492	-122.124190	221.450024	315.130478	-126.656238	151.709194	359.614056	-61.603958	231.402490	880.141031	-435.863926	306.980088	843.027595	-423.323459	331.794278	869.817982	-412.671911	356.401433	768.271203	-412.209555	414.064550	686.166690	-385.972686	420.540529	674.761330	-289.429104	328.235850	324.831378	-407.424740	337.007377	336.544615	-329.503005	265.479698	267.542321	-370.448300	438.270227	275.073313	-434.905839	389.247360	587.869346	-412.001262	390.934841	501.643763	-403.970729	349.005885	423.573178	-407.489773	413.611904	497.832438	-370.844840	521.141728	318.767273	-366.208692	-65.317228	852.588937	-241.226641	20.715860	84.378741	-442.097208	21.058746	84.089116	-44.011359	
752	3.7600	503.535852	1257.931558	-79.980570	579.050620	1195.246334	-383.384774	524.707438	1272.604818	-229.588434	483.052815	1142.550172	-224.656850	495.657897	1024.658927	21.662513	696.334302	879.529694	-38.514488	498.335703	1006.816084	-572.439180	685.362709	886.336431	-460.782487	27.514883	1135.814295	-295.105825	171.669948	1108.375621	-433.076757	154.250080	1151.409895	-132.835919	209.555112	1052.960727	-398.202848	196.458670	1094.508523	-145.011179	52.455806	1174.261277	-238.502533	62.537085	1165.721904	-346.650173	140.000011	1023.660508	-82.625677	131.999631	974.272121	-451.603064	251.374933	932.541515	-87.541066	329.632600	893.077385	-95.923390	373.634074	816.284440	-96.380923	348.657020	912.637662	-120.566067	415.521922	718.688990	-121.037747	391.030947	698.021175	-216.797334	332.055383	662.185166	-84.531665	279.781700	590.144871	-94.801571	199.191278	554.786654	-89.558204	295.967994	572.762184	-126.485204	119.904875	492.025811	-84.788350	126.463768	496.123752	-161.575791	37.775169	511.164354	-122.336331	223.960084	323.456469	-126.772924	154.183625	367.989180	-61.834918	231.226283	876.755507	-436.331995	305.841497	837.973339	-423.070294	330.962614	864.229854	-412.575559	352.819110	761.627942	-410.449153	408.980787	679.007666	-385.148096	413.863473	667.678163	-288.841074	325.753679	317.601016	-407.468630	334.753277	328.822838	-329.421993	263.215825	260.627934	-370.511140	436.144002	266.832948	-434.761879	384.488717	580.679283	-411.655660	387.227633	494.481641	-403.643022	346.192526	415.946624	-407.267838	409.730370	490.897643	-370.328974	519.375614	309.724702	-366.010846	-65.322199	852.599178	-241.263646	20.733353	84.373085	-442.112539	21.070003	84.085937	-44.019735	
753	3.7650	501.342376	1258.904289	-77.868828	581.611487	1195.960482	-379.688202	524.520340	1273.694162	-226.893011	483.188170	1143.623306	-222.616845	495.268797	1025.276347	22.174503	695.916280	879.972929	-38.313119	504.974140	1011.743675	-574.296439	686.993183	885.571461	-461.755881	28.249429	1137.389732	-296.456407	173.373083	1107.042518	-434.833207	154.289707	1153.083204	-134.746816	211.052715	1052.000793	-399.079942	196.765727	1096.450762	-146.220346	53.008185	1174.966195	-241.671610	63.983535	1165.615749	-349.953114	140.919024	1026.958653	-84.263804	133.681261	972.478382	-452.291060	253.446088	936.708732	-88.531786	332.331396	898.759706	-97.045106	377.254502	822.324541	-97.208495	350.848341	917.931776	-122.170500	420.157193	724.687133	-121.815128	395.572300	702.803830	-217.843885	336.306295	668.971686	-85.410536	283.674607	597.170221	-95.183509	202.733441	562.495662	-89.891960	299.538503	579.578336	-126.874142	123.003751	500.292114	-84.930993	128.934731	504.153121	-161.681866	41.256532	519.460182	-121.946964	226.877921	331.784193	-126.884984	157.072874	376.336116	-62.054437	230.989885	873.338775	-436.759850	304.570569	832.884240	-422.857578	330.236110	858.594765	-412.063417	349.630318	755.282431	-409.648803	403.714808	672.050019	-384.528825	406.376933	660.664668	-288.887027	323.019664	310.452679	-407.351059	332.390056	321.583120	-329.386661	260.679002	254.029491	-370.427057	433.604457	258.616208	-434.619538	379.704720	573.655595	-411.387235	383.243770	487.582810	-403.286342	343.029715	408.600366	-407.108675	405.628387	484.246935	-369.887004	517.236390	300.743047	-365.868397	-65.305401	852.593889	-241.309486	20.746800	84.360431	-442.105801	21.071663	84.096488	-44.019202	
754	3.7700	499.174800	1259.988338	-75.698774	584.175219	1196.890606	-375.869563	524.304631	1274.850335	-224.381629	483.615100	1144.779799	-220.773421	494.993426	1025.816927	22.969937	695.752487	880.143855	-38.355324	511.833040	1016.821229	-575.864373	688.986363	886.947228	-461.036899	29.204544	1137.540212	-299.360402	174.977371	1105.753251	-436.348823	154.508633	1154.573876	-136.420114	212.321593	1051.237185	-400.174851	196.983183	1098.347116	-147.232758	53.511083	1175.617905	-244.589300	65.242555	1165.430907	-352.681347	141.919931	1030.054835	-85.815909	135.426386	970.684351	-452.833950	255.659590	941.001688	-89.539543	335.180575	904.015763	-98.201290	381.146640	828.218369	-98.582471	352.964634	923.722221	-123.125873	425.086543	730.711644	-122.412999	400.331368	708.833166	-218.279619	340.876563	675.489270	-86.192460	287.713012	604.275861	-95.689275	206.520028	570.099620	-90.255272	303.092606	586.534969	-127.485145	126.364228	508.483735	-85.016319	132.251195	512.127239	-161.962109	44.242471	527.920461	-122.212097	230.204566	340.023796	-126.964411	160.479000	384.630036	-62.259232	230.733967	869.929905	-437.151805	303.314108	827.854377	-422.556545	329.295923	852.973466	-411.596178	346.725898	749.459462	-409.224566	398.278133	665.427441	-384.120279	398.997212	654.046616	-288.784781	319.852583	303.860106	-407.293368	329.330334	314.414778	-329.309563	257.701042	247.813742	-370.492155	430.725635	250.702467	-434.425879	374.702604	567.010384	-411.089492	379.064153	480.874359	-402.942253	339.611515	401.578076	-406.938635	401.224576	477.804780	-369.466482	514.787913	291.817341	-365.593983	-65.278875	852.606407	-241.314416	20.752104	84.370954	-442.105089	21.066153	84.113524	-44.023297	
755	3.7750	497.097528	1260.925550	-73.504560	586.599429	1197.996662	-372.034850	523.979985	1275.913729	-221.824510	484.033004	1145.834194	-218.943388	494.818263	1026.409612	23.861259	696.110289	879.678861	-38.604878	519.225656	1021.853926	-576.627074	691.204195	886.341552	-460.507149	30.297265	1137.351205	-302.142145	176.584004	1104.589139	-437.493856	154.443787	1155.910698	-138.734291	213.569391	1050.425093	-400.823478	197.004905	1099.920859	-148.359722	54.191786	1176.608362	-247.097346	66.378851	1165.496203	-355.035065	143.072154	1032.961186	-87.229870	137.140161	968.925580	-453.245354	258.059867	945.210729	-90.502912	338.173993	909.177734	-99.401699	385.105385	834.290620	-99.370969	355.569776	929.816273	-123.982542	430.063346	736.900932	-123.070665	405.607520	715.132095	-218.105904	345.781057	682.207449	-86.576079	291.910677	611.308943	-96.164058	210.501995	577.656483	-90.615923	307.187857	593.176564	-127.896135	129.952739	516.438008	-85.179322	135.820211	519.997103	-162.222054	47.670523	536.141005	-122.272998	234.995216	348.362561	-126.630521	164.171284	392.736612	-62.576064	230.494242	866.544228	-437.499291	301.900613	822.870962	-422.324254	328.354793	847.363536	-411.110162	343.508306	743.427868	-408.201995	392.980604	659.135821	-383.621920	392.796329	647.550908	-287.513694	316.511218	297.345237	-407.147122	326.255277	307.870655	-329.435344	254.336702	242.072031	-370.630200	427.515161	242.958804	-434.208997	369.647582	560.617987	-410.891331	374.654307	474.623959	-402.667932	335.907358	394.973660	-406.901760	396.515313	471.844710	-369.277031	511.927019	283.090141	-365.275109	-65.273414	852.640020	-241.415214	20.756212	84.420034	-442.089207	21.051824	84.175017	-44.061900	
